<svg xmlns="http://www.w3.org/2000/svg" xmlns:xlink="http://www.w3.org/1999/xlink" width="1440" height="810" viewBox="0 0 1440 810">
  <defs>
    <clipPath id="clip-_05">
      <rect width="1440" height="810"/>
    </clipPath>
  </defs>
  <g id="_05" data-name="05" clip-path="url(#clip-_05)">
    <rect width="1440" height="810" fill="#f5f5f7"/>
    <g id="Group_21631" data-name="Group 21631" transform="translate(167 -623)">
      <path id="Path_54" data-name="Path 54" d="M181.229,103.022a14.3,14.3,0,0,0,9.379-9.382.606.606,0,0,1,1.171,0,14.31,14.31,0,0,0,9.382,9.382.606.606,0,0,1,0,1.171,14.306,14.306,0,0,0-9.382,9.379.606.606,0,0,1-1.171,0,14.3,14.3,0,0,0-9.379-9.379A.606.606,0,0,1,181.229,103.022Z" transform="translate(301.806 630.393)" fill="#2052af"/>
      <path id="Path_111477" data-name="Path 111477" d="M181.555,110.182a24.718,24.718,0,0,0,16.211-16.215,1.048,1.048,0,0,1,2.024,0A24.732,24.732,0,0,0,216,110.182a1.048,1.048,0,0,1,0,2.024,24.726,24.726,0,0,0-16.215,16.211,1.047,1.047,0,0,1-2.024,0,24.712,24.712,0,0,0-16.211-16.211A1.048,1.048,0,0,1,181.555,110.182Z" transform="translate(41.22 1051.807)" fill="#2052af"/>
      <path id="Path_55" data-name="Path 55" d="M193.574,99.846a16.472,16.472,0,0,0,10.8-10.808.7.7,0,0,1,1.353,0,16.469,16.469,0,0,0,10.808,10.808.7.7,0,0,1,0,1.349A16.478,16.478,0,0,0,205.731,112a.7.7,0,0,1-1.353,0,16.481,16.481,0,0,0-10.8-10.808A.7.7,0,0,1,193.574,99.846Z" transform="translate(243.53 582.478)" fill="#2052af"/>
      <rect id="Rectangle_1" data-name="Rectangle 1" width="208.525" height="4.217" transform="matrix(0.707, -0.707, 0.707, 0.707, 734.533, 901.865)" fill="#2052af"/>
      <rect id="Rectangle_4" data-name="Rectangle 4" width="107.357" height="4.218" transform="translate(788.267 883.513) rotate(-45)" fill="#2052af"/>
      <g id="Group_20485" data-name="Group 20485" transform="translate(-385.753 648.27)">
        <g id="react-2" transform="translate(714.607 159.33)">
          <path id="Path_108950" data-name="Path 108950" d="M596.824,265.557c0-27.9-34.936-54.336-88.5-70.731,12.361-54.593,6.867-98.028-17.339-111.933a37.634,37.634,0,0,0-19.228-4.807V97.228a19.877,19.877,0,0,1,9.786,2.232c11.674,6.7,16.738,32.189,12.79,64.98-.944,8.069-2.489,16.567-4.378,25.237a416,416,0,0,0-54.507-9.356A418.724,418.724,0,0,0,399.739,137.4c27.983-26.009,54.25-40.258,72.1-40.258V78c-23.606,0-54.507,16.824-85.753,46.009C354.845,95,323.943,78.343,300.338,78.343V97.485c17.769,0,44.121,14.163,72.1,40a405.421,405.421,0,0,0-35.451,42.833,400.842,400.842,0,0,0-54.593,9.442c-1.974-8.584-3.434-16.91-4.464-24.893-4.034-32.79.944-58.284,12.533-65.066,2.575-1.545,5.923-2.232,9.871-2.232V78.429a38.274,38.274,0,0,0-19.4,4.807c-24.121,13.906-29.528,57.254-17.082,111.676-53.392,16.481-88.156,42.833-88.156,70.645,0,27.9,34.936,54.336,88.5,70.731-12.361,54.593-6.867,98.028,17.339,111.934a37.734,37.734,0,0,0,19.314,4.807c23.606,0,54.507-16.824,85.753-46.009,31.245,29.013,62.147,45.666,85.753,45.666a38.274,38.274,0,0,0,19.4-4.807c24.121-13.906,29.528-57.254,17.082-111.676,53.22-16.4,87.984-42.833,87.984-70.645ZM485.062,208.3c-3.176,11.073-7.125,22.49-11.588,33.906-3.519-6.867-7.211-13.734-11.245-20.6-3.949-6.867-8.155-13.562-12.361-20.086C462.057,203.324,473.817,205.556,485.062,208.3Zm-39.314,91.418c-6.7,11.588-13.562,22.576-20.687,32.79-12.79,1.116-25.751,1.717-38.8,1.717-12.962,0-25.923-.6-38.627-1.631q-10.687-15.322-20.773-32.619-9.786-16.867-17.854-34.164c5.322-11.5,11.331-23,17.769-34.25,6.7-11.588,13.562-22.576,20.687-32.79,12.79-1.116,25.751-1.717,38.8-1.717,12.962,0,25.923.6,38.627,1.631q10.687,15.322,20.773,32.619,9.786,16.867,17.854,34.164c-5.408,11.5-11.331,23-17.769,34.25Zm27.726-11.159c4.635,11.5,8.584,23,11.846,34.164-11.245,2.747-23.09,5.065-35.365,6.867,4.206-6.61,8.412-13.391,12.361-20.344C466.263,302.382,469.954,295.429,473.474,288.562Zm-87.04,91.59a353.875,353.875,0,0,1-23.863-27.468c7.725.343,15.623.6,23.606.6,8.069,0,16.052-.172,23.863-.6A335.048,335.048,0,0,1,386.434,380.152ZM322.57,329.593c-12.189-1.8-23.949-4.035-35.194-6.781,3.176-11.073,7.125-22.49,11.588-33.906,3.519,6.867,7.21,13.734,11.245,20.6S318.364,323.069,322.57,329.593ZM386,150.963a353.872,353.872,0,0,1,23.863,27.468c-7.725-.343-15.623-.6-23.606-.6-8.069,0-16.052.172-23.863.6A335.086,335.086,0,0,1,386,150.963Zm-63.52,50.559c-4.206,6.61-8.412,13.391-12.361,20.344-3.949,6.867-7.64,13.734-11.159,20.6-4.635-11.5-8.584-23-11.846-34.164,11.245-2.661,23.091-4.979,35.366-6.781ZM244.8,308.991c-30.387-12.962-50.044-29.958-50.044-43.434S214.413,235,244.8,222.123c7.382-3.176,15.451-6.009,23.777-8.67a412.257,412.257,0,0,0,19.314,52.276,406.454,406.454,0,0,0-19.056,52.018C260.337,315.086,252.268,312.167,244.8,308.991Zm46.181,122.663c-11.674-6.7-16.739-32.189-12.79-64.98.944-8.069,2.489-16.567,4.378-25.237a415.986,415.986,0,0,0,54.507,9.356,418.727,418.727,0,0,0,35.709,42.919c-27.983,26.009-54.25,40.258-72.1,40.258A20.487,20.487,0,0,1,290.981,431.655ZM494.59,366.246c4.034,32.79-.944,58.284-12.533,65.066-2.575,1.545-5.923,2.232-9.871,2.232-17.769,0-44.121-14.163-72.1-40a405.418,405.418,0,0,0,35.451-42.833,400.831,400.831,0,0,0,54.593-9.442A240.343,240.343,0,0,1,494.59,366.246Zm33.048-57.254c-7.382,3.176-15.451,6.009-23.777,8.67a412.28,412.28,0,0,0-19.314-52.276A406.449,406.449,0,0,0,503.6,213.367c8.5,2.661,16.567,5.579,24.121,8.756,30.387,12.962,50.044,29.958,50.044,43.434C577.682,279.034,558.025,296.116,527.638,308.991Z" transform="translate(-175.7 -78)" fill="#2052af"/>
          <circle id="Ellipse_4033" data-name="Ellipse 4033" cx="39.228" cy="39.228" r="39.228" transform="translate(171.248 148.329)" fill="#2052af"/>
        </g>
        <path id="Path_112049" data-name="Path 112049" d="M26.051-42.873h5.273q7.752,0,11.443-2.584t3.691-8.121q0-5.484-3.771-7.8T31.008-63.7H26.051Zm0,13.289V0H9.7V-77.1H32.168q15.715,0,23.256,5.722T62.965-54a20.456,20.456,0,0,1-3.744,12.1,24.774,24.774,0,0,1-10.6,8.306Q66.023-7.594,71.3,0H53.156l-18.4-29.584ZM99.83-48.621a10.2,10.2,0,0,0-8.016,3.243q-2.9,3.243-3.322,9.2h22.57q-.105-5.959-3.111-9.2A10.534,10.534,0,0,0,99.83-48.621ZM102.1,1.055Q87.86,1.055,79.844-6.8T71.828-29.057q0-14.818,7.409-22.913t20.487-8.095q12.5,0,19.459,7.119t6.961,19.67v7.8H88.123q.264,6.855,4.061,10.705t10.652,3.85a44.222,44.222,0,0,0,10.072-1.107,50.4,50.4,0,0,0,9.914-3.533V-3.111A37.767,37.767,0,0,1,113.805.026,56.856,56.856,0,0,1,102.1,1.055ZM172.344,0l-3.111-8.016h-.422a23.755,23.755,0,0,1-8.358,7.093,27.012,27.012,0,0,1-11.206,1.978q-8.49,0-13.368-4.852T131-17.613q0-9.387,6.565-13.843t19.8-4.931L167.6-36.7v-2.584q0-8.965-9.176-8.965-7.066,0-16.611,4.271l-5.326-10.863a47.93,47.93,0,0,1,22.57-5.326q11.865,0,18.193,5.168t6.328,15.715V0ZM167.6-27.316l-6.223.211q-7.014.211-10.441,2.531a7.95,7.95,0,0,0-3.428,7.066q0,6.8,7.8,6.8a12.361,12.361,0,0,0,8.938-3.217,11.3,11.3,0,0,0,3.349-8.543ZM219.757,1.055q-27.527,0-27.527-30.217,0-15.029,7.488-22.966t21.463-7.937a40.917,40.917,0,0,1,18.352,4.008l-4.746,12.445q-3.8-1.529-7.066-2.5a22.768,22.768,0,0,0-6.539-.976q-12.551,0-12.551,17.824,0,17.3,12.551,17.3a28.616,28.616,0,0,0,8.6-1.239,31.036,31.036,0,0,0,7.91-3.876V-3.322A25.923,25.923,0,0,1,229.8.105,44.335,44.335,0,0,1,219.757,1.055ZM271.863-11.76a34.866,34.866,0,0,0,10.125-1.846V-1.635a36.1,36.1,0,0,1-14.766,2.689q-9.65,0-14.054-4.878t-4.4-14.634V-46.881h-7.7v-6.8l8.859-5.379,4.641-12.445h10.283v12.551h16.506v12.076H264.849v28.424a6.279,6.279,0,0,0,1.925,5.063A7.594,7.594,0,0,0,271.863-11.76Zm15.455,4.219q0-4.43,2.373-6.7t6.908-2.268a9.349,9.349,0,0,1,6.776,2.32,8.818,8.818,0,0,1,2.4,6.645,8.817,8.817,0,0,1-2.426,6.565,9.182,9.182,0,0,1-6.75,2.4,9.456,9.456,0,0,1-6.855-2.347A8.78,8.78,0,0,1,287.318-7.541Zm24,33.486a37.445,37.445,0,0,1-10.6-1.318V11.971a28.661,28.661,0,0,0,7.541,1q4.061,0,5.933-2.268t1.872-6.7V-58.957h16.084V6.381q0,9.387-5.432,14.476T311.316,25.945ZM315.377-74.2q0-7.857,8.754-7.857t8.754,7.857A7.661,7.661,0,0,1,330.7-68.37q-2.188,2.083-6.565,2.083Q315.377-66.287,315.377-74.2Zm70.457,56.689q0,9.07-6.3,13.816T360.68,1.055a59.213,59.213,0,0,1-10.969-.87,41.489,41.489,0,0,1-8.49-2.558V-15.662a56.069,56.069,0,0,0,10.1,3.533,40.891,40.891,0,0,0,9.888,1.424q8.754,0,8.754-5.062a4.225,4.225,0,0,0-1.16-3.085,16.821,16.821,0,0,0-4.008-2.689q-2.848-1.5-7.594-3.507a47.7,47.7,0,0,1-9.993-5.273,14.844,14.844,0,0,1-4.641-5.563,18.365,18.365,0,0,1-1.45-7.726,14.005,14.005,0,0,1,6.091-12.155q6.091-4.3,17.271-4.3A49.022,49.022,0,0,1,385.2-55.424l-4.852,11.6q-4.43-1.9-8.279-3.111a26,26,0,0,0-7.857-1.213q-7.119,0-7.119,3.85a4.526,4.526,0,0,0,2.294,3.744q2.294,1.582,10.046,4.693a46.67,46.67,0,0,1,10.125,5.221,15.441,15.441,0,0,1,4.746,5.59A17.177,17.177,0,0,1,385.834-17.508Z" transform="translate(730.753 663.842)" fill="#2052af"/>
      </g>
    </g>
  </g>
</svg>
